<svg xmlns="http://www.w3.org/2000/svg" xmlns:xlink="http://www.w3.org/1999/xlink" viewBox="0 0 543.76 732.37"><defs><style>.cls-1,.cls-2{fill:blue;}.cls-1{stroke:blue;}.cls-1,.cls-5{stroke-miterlimit:10;}.cls-3{fill:#580074;}.cls-4{fill:url(#New_Gradient_Swatch_copy);}.cls-5{fill:none;stroke-width:3px;stroke:url(#linear-gradient);}.cls-6{fill:url(#New_Gradient_Swatch);}.cls-7{fill:aqua;}.cls-8{fill:url(#linear-gradient-2);}</style><linearGradient id="New_Gradient_Swatch_copy" x1="-14.9" y1="499.59" x2="191.85" y2="644.35" gradientUnits="userSpaceOnUse"><stop offset="0" stop-color="#1b1464"/><stop offset="0.2" stop-color="#1e166d"/><stop offset="0.53" stop-color="#241b87"/><stop offset="0.95" stop-color="#3023b0"/><stop offset="0.99" stop-color="#3124b5"/></linearGradient><linearGradient id="linear-gradient" x1="43.24" y1="381.73" x2="543.76" y2="381.73" gradientUnits="userSpaceOnUse"><stop offset="0" stop-color="#fff"/><stop offset="0.02" stop-color="#fffef6"/><stop offset="0.17" stop-color="#fefabe"/><stop offset="0.32" stop-color="#fdf68e"/><stop offset="0.46" stop-color="#fdf367"/><stop offset="0.6" stop-color="#fdf148"/><stop offset="0.74" stop-color="#fcef33"/><stop offset="0.88" stop-color="#fcee25"/><stop offset="1" stop-color="#fcee21"/></linearGradient><linearGradient id="New_Gradient_Swatch" x1="402.22" y1="666.83" x2="485.25" y2="666.83" gradientUnits="userSpaceOnUse"><stop offset="0" stop-color="#f0f"/><stop offset="0.12" stop-color="#f603f8"/><stop offset="0.33" stop-color="#dc0ae6"/><stop offset="0.59" stop-color="#b316c8"/><stop offset="0.9" stop-color="#7a279f"/><stop offset="0.99" stop-color="#662d91"/></linearGradient><linearGradient id="linear-gradient-2" x1="230.26" y1="76.85" x2="281.44" y2="141.65" gradientUnits="userSpaceOnUse"><stop offset="0" stop-color="#f0f"/><stop offset="0.09" stop-color="#f900ff"/><stop offset="0.22" stop-color="#e900ff"/><stop offset="0.36" stop-color="#cd00ff"/><stop offset="0.51" stop-color="#a700ff"/><stop offset="0.67" stop-color="#7600ff"/><stop offset="0.84" stop-color="#3b00ff"/><stop offset="0.99" stop-color="blue"/></linearGradient></defs><g id="Layer_2" data-name="Layer 2"><g id="Layer_1-2" data-name="Layer 1"><path class="cls-1" d="M484.1,698.3H379.45L153.9,362l-65,75.18V698.3H.5V13.55H88.89V343.73h3c18.29-26.41,36.58-50.8,53.85-73.14l2.54-3.13a49,49,0,0,0,10.59,4.9c10.15,3.21,22.39,2,29.81-5.68,7.75-8,8.8-21,17.13-28.35,5-4.44,12-6.16,17-10.57C233,218.89,233,201.48,244.26,194c7.56-5,18.85-4.36,24-11.81,4.83-7,1.28-17.21,5.55-24.56,5.81-10,22.52-9.24,27.81-19.54,3.43-6.65.5-15.47,4.63-21.72,4.34-6.56,14.39-7.08,19.11-13.38,3.71-5,3.12-12.22,6.89-17.15,4.35-5.64,13.24-6.6,16.86-12.73C351.29,69.48,351,64.78,353,61c2.14-4,6.46-6.18,10.4-8.41a107.28,107.28,0,0,0,30.95-26.38,55.21,55.21,0,0,0,7.84-12.69h62.56L396.65,93.42l-23.73,27.81-2,.46c-10.77,2.52-22.61,5.78-28.55,15.11-3.11,4.91-4.38,11.23-9,14.77-3.4,2.6-8,3.16-11.5,5.62-7,4.9-7.42,15.48-13.69,21.24-2.75,2.53-6.33,3.87-9.54,5.76-12.92,7.6-18.72,24-17.09,38.91.16,1.48.38,3,.67,4.41h0L216.9,304.11Z"/><path class="cls-2" d="M465.89,15,375.22,121.23c-.29-1.46-.51-2.93-.67-4.41-1.63-14.89,4.18-31.31,17.09-38.91,3.21-1.89,6.8-3.23,9.54-5.76,6.27-5.76,6.72-16.34,13.7-21.24,3.49-2.46,8.09-3,11.49-5.62,4.61-3.54,5.87-9.86,9-14.77,5.94-9.33,17.79-12.59,28.55-15.11Z"/><path class="cls-2" d="M384.86,127.23,294.18,233.51c-.28-1.46-.5-2.93-.67-4.41-1.62-14.89,4.18-31.31,17.09-38.91,3.22-1.89,6.8-3.23,9.55-5.76,6.27-5.76,6.72-16.34,13.69-21.24,3.5-2.46,8.1-3,11.49-5.62,4.61-3.54,5.88-9.86,9-14.77,5.94-9.33,17.78-12.59,28.55-15.11Z"/><path class="cls-3" d="M283.75,227.52h0a1.27,1.27,0,0,0-.13-.58,1.24,1.24,0,0,0-.31-.48,1.72,1.72,0,0,0-1.06-.44l-.4.05a1.47,1.47,0,0,0-.66.39l-.24.3a1.57,1.57,0,0,0-.2.76h0a1.06,1.06,0,0,0,.13.58,1.36,1.36,0,0,0,.79.79,1.06,1.06,0,0,0,.58.13l.39-.05a1.47,1.47,0,0,0,.67-.39l.23-.3a1.48,1.48,0,0,0,.21-.76Z"/><path class="cls-3" d="M408,13.28a1.5,1.5,0,0,0,0-3,1.5,1.5,0,0,0,0,3Z"/><path class="cls-4" d="M46.31,635.08a33.93,33.93,0,0,0,1-5.91,110.39,110.39,0,0,0-2.16-23.38,244.27,244.27,0,0,0-6.14-25c-4.94-19.81-7.24-26.35-5.9-38.89,1.16-10.8,10.72-13.06,17.07-8.67,8.15,5.63,10.18,13.09,10.67,21.93,1.56,27.75,2.27,36.46,7.38,54.15,1.65,5.69,6.83,12.23,13.31,11.11a9.53,9.53,0,0,0,7.7-9.48q0-7.35-.25-14.68v0C87.08,548,75.16,500.46,68.92,452.59c-2.61-20.06-4.22-40.18-3.68-60.43,0-1.43.12-2.89.26-4.37,1.32-14,21.69-16.1,24.91-2.42,7.27,30.8,5.23,37.93,17.79,62.3,13.19,25.62,20,26.85,22.15,36.59l-.13,248.11H43.64V634.76Z"/><path class="cls-2" d="M88.89,70.69v33.77c-6.14-5-11.44-11.33-16.46-18.07C64.32,75.49,56.94,63.4,48,53.53c-3.66-4-8.62-8-13.93-6.89-6.72,1.45-9,9.79-9.3,16.65a110,110,0,0,0,3.78,32.23v0c11,42.42,42.42,81.05,50,125.31,1.72,10.08.42,23.19-9.24,26.54-5.4,1.87-11.39-.32-16.15-3.47a43.81,43.81,0,0,1-5.72-4.53C34.89,227.8,29.29,209.76,24.58,193Q18.3,170.66,12,148.34c-.81-2.82-5.33-10.87-11.54-21.16V13.55H44.09C50.38,29.36,59.28,46,71.52,57.09a83.05,83.05,0,0,0,8,7C82.54,66.39,85.72,68.53,88.89,70.69Z"/><path class="cls-5" d="M184.08,261.75l185-226c65.74-.33,61.1-.66,126.84-1L258.81,312.71l282.12,416H407.21L191.48,407,129.29,479V728.69H44.74v-655h84.55V394"/><path class="cls-6" d="M485.25,698.9,439.9,634.76a86.4,86.4,0,0,0-24.78,25.6c-9.61,15.12-12.12,30.76-12.9,38.54"/><line class="cls-7" x1="164.1" y1="248.08" x2="184.08" y2="261.75"/><path class="cls-8" d="M396.79,0A55.21,55.21,0,0,1,389,12.69,107.24,107.24,0,0,1,358,39.06c-3.94,2.24-8.26,4.44-10.4,8.42-2,3.75-1.75,8.44-3.92,12.1-3.62,6.14-12.51,7.1-16.86,12.74-3.77,4.93-3.18,12.17-6.89,17.15-4.72,6.3-14.77,6.81-19.11,13.38-4.13,6.25-1.2,15.07-4.63,21.72-5.29,10.29-22,9.52-27.81,19.54-4.27,7.35-.72,17.58-5.55,24.56-5.16,7.44-16.45,6.81-24,11.81-11.25,7.45-11.22,24.86-21.38,33.73-5.05,4.41-12,6.13-17,10.57-8.33,7.37-9.38,20.38-17.13,28.35-7.42,7.64-19.66,8.89-29.81,5.68a49.44,49.44,0,0,1-10.59-4.9L349.63,0Z"/></g></g></svg>